# xmcd CD database file
#
# Track frame offsets:
#	150
#	9737
#	24372
#	38410
#	54495
#	75097
#	92567
#	103395
#	117872
#	132030
#	145125
#	157737
#	182155
#	195732
#	215032
#	232025
#	253122
#
# Disc length: 3556 seconds
#
# Revision: 2
# Processed by: cddbd v1.5.1PL2 Copyright (c) Steve Scherf et al.
# Submitted via: CDex 1.51
#
DISCID=d90de211
DTITLE=John Mayall - John Mayall - The Collection
DYEAR=1986
DGENRE=Blues
TTITLE0=Key To Love
TTITLE1=Hideaway
TTITLE2=Ramblin' On My Mind
TTITLE3=All Your Love
TTITLE4=They Call It Stormy Monday
TTITLE5=Hoochie Coochie Man
TTITLE6=Crawling Up A Hill
TTITLE7=Marsha's Mood
TTITLE8=A Hard Road
TTITLE9=The Super-Natural
TTITLE10=You Don't Love Me
TTITLE11=Suspicions (Part II)
TTITLE12=Picture On The Wall
TTITLE13=The Death Of J.B. Lenoir
TTITLE14=Sandy
TTITLE15=The Bear
TTITLE16=Walking On Sunset
EXTD=YEAR: 1986
EXTT0=
EXTT1=
EXTT2=
EXTT3=
EXTT4=
EXTT5=
EXTT6=
EXTT7=
EXTT8=
EXTT9=
EXTT10=
EXTT11=
EXTT12=
EXTT13=
EXTT14=
EXTT15=
EXTT16=
PLAYORDER=
